<svg xmlns="http://www.w3.org/2000/svg" width="70" height="70" viewBox="0 0 70 70" style="width: 100%; height: 100%;"><desc>Made with illustrio</desc>
  
<g class="base"><g fill="none" fill-rule="evenodd" stroke="none" class="main-fill">
    
    
  </g><g fill="none" transform="translate(22.273 17.818)" stroke="none" class="main-fill">
      <path d="M12.7272727,4.45454545 C8.16581818,4.45454545 4.45454545,8.16581818 4.45454545,12.7272727 C4.45454545,17.2887273 8.16581818,21 12.7272727,21 C17.2887273,21 21,17.2887273 21,12.7272727 C21,8.16581818 17.2887273,4.45454545 12.7272727,4.45454545 L12.7272727,4.45454545 Z M14,15.9090909 L11.4545455,15.9090909 C11.1032727,15.9090909 10.8181818,15.624 10.8181818,15.2727273 C10.8181818,14.9214545 11.1032727,14.6363636 11.4545455,14.6363636 L14,14.6363636 C14.3519091,14.6363636 14.6363636,14.9214545 14.6363636,15.2727273 C14.6363636,15.624 14.3519091,15.9090909 14,15.9090909 L14,15.9090909 Z M16.5454545,13.3636364 L8.90909091,13.3636364 C8.55781818,13.3636364 8.27272727,13.0785455 8.27272727,12.7272727 C8.27272727,12.376 8.55781818,12.0909091 8.90909091,12.0909091 L16.5454545,12.0909091 C16.8973636,12.0909091 17.1818182,12.376 17.1818182,12.7272727 C17.1818182,13.0785455 16.8973636,13.3636364 16.5454545,13.3636364 L16.5454545,13.3636364 Z M16.5454545,10.8181818 L8.90909091,10.8181818 C8.55781818,10.8181818 8.27272727,10.5330909 8.27272727,10.1818182 C8.27272727,9.83054545 8.55781818,9.54545455 8.90909091,9.54545455 L16.5454545,9.54545455 C16.8973636,9.54545455 17.1818182,9.83054545 17.1818182,10.1818182 C17.1818182,10.5330909 16.8973636,10.8181818 16.5454545,10.8181818 L16.5454545,10.8181818 Z" fill="none" stroke="none" class="main-fill"></path>
      <path d="M24.1309091,12.7272727 C24.1309091,12.4103636 24.3536364,11.9744545 24.5680909,11.5525455 C24.899,10.9040909 25.2725455,10.1690909 25.0727273,9.41945455 C24.8652727,8.64309091 24.1576364,8.18554545 23.5333636,7.78209091 C23.149,7.53327273 22.7512727,7.27618182 22.6049091,7.02481818 C22.4540909,6.76390909 22.4292727,6.28345455 22.4044545,5.81954545 C22.3656364,5.08390909 22.3217273,4.25027273 21.763,3.69154545 C21.2042727,3.13281818 20.3706364,3.08890909 19.635,3.05009091 C19.1710909,3.02527273 18.6912727,3.00045455 18.4297273,2.849 C18.1777273,2.70327273 17.9206364,2.30554545 17.6718182,1.92118182 C17.2683636,1.29690909 16.8108182,0.589272727 16.0357273,0.381818182 C15.8957273,0.344272727 15.7487273,0.325818182 15.5979091,0.325818182 C15.0029091,0.325818182 14.4441818,0.610909091 13.902,0.886454545 C13.4800909,1.10154545 13.0435455,1.32363636 12.7272727,1.32363636 C12.411,1.32363636 11.9744545,1.10154545 11.5525455,0.886454545 C11.011,0.610272727 10.4516364,0.325818182 9.85727273,0.325818182 C9.70645455,0.325818182 9.55945455,0.344272727 9.41945455,0.381818182 C8.64309091,0.589909091 8.18554545,1.29754545 7.78209091,1.92181818 C7.53327273,2.30618182 7.27618182,2.70390909 7.02481818,2.84963636 C6.76390909,3.00045455 6.28345455,3.02590909 5.81954545,3.05009091 C5.08390909,3.08890909 4.25027273,3.13281818 3.69154545,3.69154545 C3.13281818,4.25027273 3.08890909,5.08390909 3.05009091,5.81890909 C3.02590909,6.28281818 3.00045455,6.76327273 2.84963636,7.02481818 C2.70390909,7.27681818 2.30618182,7.53390909 1.92181818,7.78209091 C1.29754545,8.18554545 0.589272727,8.64309091 0.381818182,9.42009091 C0.182,10.1684545 0.556181818,10.9040909 0.886454545,11.5525455 C1.10154545,11.9744545 1.32427273,12.411 1.32427273,12.7272727 C1.32427273,13.0435455 1.10218182,13.4800909 0.887090909,13.902 C0.556181818,14.5504545 0.182,15.2854545 0.382454545,16.0350909 C0.589909091,16.8114545 1.29754545,17.2683636 1.92181818,17.6724545 C2.30618182,17.9212727 2.70390909,18.1777273 2.84963636,18.4297273 C3.00109091,18.6906364 3.02590909,19.1710909 3.05072727,19.6356364 C3.08954545,20.3706364 3.13345455,21.2042727 3.69218182,21.763 C4.25090909,22.3217273 5.08454545,22.3656364 5.81954545,22.4044545 C6.03654545,22.4165455 6.25481818,22.4286364 6.45527273,22.4534545 L3.241,29.4178182 C3.13345455,29.6513636 3.17672727,29.9275455 3.35109091,30.1165455 C3.52672727,30.3061818 3.79781818,30.3691818 4.039,30.282 L6.81990909,29.2580909 L7.84445455,32.0383636 C7.93354545,32.2801818 8.15945455,32.4443636 8.41654545,32.4539091 C8.42354545,32.4545455 8.43181818,32.4545455 8.44072727,32.4545455 C8.68827273,32.4545455 8.91418182,32.3107273 9.01854545,32.0848182 L12.6871818,24.1372727 C12.6999091,24.136 12.7145455,24.1309091 12.7272727,24.1309091 C12.9506364,24.1309091 13.2344545,24.2435455 13.5297273,24.3841818 L16.1623636,32.9394545 C16.2380909,33.1857273 16.4544545,33.3613636 16.7109091,33.3855455 C16.7306364,33.3880909 16.7503636,33.3887273 16.7707273,33.3887273 C17.0049091,33.3887273 17.2219091,33.2601818 17.3332727,33.0501818 L18.7211818,30.4309091 L21.3385455,31.8181818 C21.5657273,31.9384545 21.8431818,31.9110909 22.0417273,31.7462727 C22.2402727,31.5820909 22.3204545,31.3148182 22.2440909,31.0691818 L19.5809091,22.407 C19.5987273,22.4063636 19.6171818,22.4050909 19.635,22.4038182 C20.3706364,22.365 21.2042727,22.3210909 21.763,21.7623636 C22.3217273,21.2036364 22.3656364,20.37 22.4044545,19.635 C22.4292727,19.1710909 22.4540909,18.6912727 22.6049091,18.4297273 C22.7506364,18.1777273 23.1483636,17.9206364 23.5333636,17.6718182 C24.1576364,17.2683636 24.8652727,16.8108182 25.0727273,16.0344545 C25.2725455,15.2854545 24.899,14.5504545 24.5680909,13.902 C24.3536364,13.4807273 24.1309091,13.0441818 24.1309091,12.7272727 L24.1309091,12.7272727 Z M12.7272727,22.2727273 C7.46390909,22.2727273 3.18181818,17.9906364 3.18181818,12.7272727 C3.18181818,7.46390909 7.46390909,3.18181818 12.7272727,3.18181818 C17.9906364,3.18181818 22.2727273,7.46390909 22.2727273,12.7272727 C22.2727273,17.9906364 17.9906364,22.2727273 12.7272727,22.2727273 L12.7272727,22.2727273 Z" fill="none" stroke="none" class="main-fill"></path>
    </g></g><style>
          .main-fill {fill: #F5C84E;}
          .main-stroke {stroke: #F5C84E;}
          .secondary-fill {fill: ;}
          .secondary-stroke {stroke: ;}

          .main-fill--darken {fill: #e9ae0d;}
          .main-stroke--darken {stroke: #e9ae0d;}
          .secondary-fill--darken {fill: #000000;}
          .secondary-stroke--darken {stroke: #000000;}

          .main-fill--darkener {fill: #b98a0a;}
          .main-stroke--darkener {stroke: #b98a0a;}
          .secondary-fill--darkener {fill: #000000;}
          .secondary-stroke--darkener {stroke: #000000;}
        </style></svg>