<svg xmlns="http://www.w3.org/2000/svg" width="70" height="70" viewBox="0 0 70 70" style="width: 100%; height: 100%;"><desc>Made with illustrio</desc>
  
<g class="base"><g fill="none" fill-rule="evenodd" stroke="none" class="main-fill">
    
    
  </g><g fill="none" transform="translate(24.706 17.294)" stroke="none" class="main-fill">
      <path d="M4.73529412,26.5588235 C4.73529412,29.624 7.22894118,32.1176471 10.2941176,32.1176471 C13.3592941,32.1176471 15.8529412,29.624 15.8529412,26.5588235 C15.8529412,23.4936471 13.3592941,21 10.2941176,21 C7.22894118,21 4.73529412,23.4936471 4.73529412,26.5588235 L4.73529412,26.5588235 Z M15.0294118,26.5588235 C15.0294118,26.8997647 14.7527059,27.1764706 14.4117647,27.1764706 C14.0708235,27.1764706 13.7941176,26.8997647 13.7941176,26.5588235 C13.7941176,24.6288824 12.2240588,23.0588235 10.2941176,23.0588235 C9.95276471,23.0588235 9.67647059,22.7821176 9.67647059,22.4411765 C9.67647059,22.1002353 9.95276471,21.8235294 10.2941176,21.8235294 C12.9051176,21.8235294 15.0294118,23.9478235 15.0294118,26.5588235 L15.0294118,26.5588235 Z" fill="none" stroke="none" class="main-fill"></path>
      <path d="M20.0805294,2.40676471 C20.3864706,1.55029412 19.9401176,0.607764706 19.0836471,0.301823529 C18.8135294,0.205470588 18.5364118,0.191470588 18.2720588,0.233470588 C18.1880588,0.218235294 2.39976471,0.218235294 2.31576471,0.233470588 C2.05141176,0.191058824 1.77470588,0.205470588 1.505,0.301823529 C0.648117647,0.607764706 0.201764706,1.55029412 0.507705882,2.40676471 L5.55882353,16.5500588 L5.55882353,19.0914706 C3.08823529,20.6635882 1.44117647,23.4195294 1.44117647,26.5588235 C1.44117647,31.4402941 5.41264706,35.4117647 10.2941176,35.4117647 C15.1755882,35.4117647 19.1470588,31.4402941 19.1470588,26.5588235 C19.1470588,23.4195294 17.5,20.664 15.0294118,19.0914706 L15.0294118,16.5496471 L20.0805294,2.40676471 L20.0805294,2.40676471 Z M17.0882353,26.5588235 C17.0882353,30.3050588 14.0403529,33.3529412 10.2941176,33.3529412 C6.54788235,33.3529412 3.5,30.3050588 3.5,26.5588235 C3.5,22.8125882 6.54788235,19.7647059 10.2941176,19.7647059 C14.0403529,19.7647059 17.0882353,22.8125882 17.0882353,26.5588235 L17.0882353,26.5588235 Z M11.8542941,15.6470588 L8.73435294,15.6470588 L4.396,3.5 L16.1922353,3.5 L11.8542941,15.6470588 L11.8542941,15.6470588 Z" fill="none" stroke="none" class="main-fill"></path>
    </g></g><style>
          .main-fill {fill: #6C7A86;}
          .main-stroke {stroke: #6C7A86;}
          .secondary-fill {fill: ;}
          .secondary-stroke {stroke: ;}

          .main-fill--darken {fill: #4a535c;}
          .main-stroke--darken {stroke: #4a535c;}
          .secondary-fill--darken {fill: #000000;}
          .secondary-stroke--darken {stroke: #000000;}

          .main-fill--darkener {fill: #333a3f;}
          .main-stroke--darkener {stroke: #333a3f;}
          .secondary-fill--darkener {fill: #000000;}
          .secondary-stroke--darkener {stroke: #000000;}
        </style></svg>